<?xml version="1.0" encoding="utf-8"?>
<!-- Generator: Adobe Illustrator 16.0.0, SVG Export Plug-In . SVG Version: 6.00 Build 0)  -->
<!DOCTYPE svg PUBLIC "-//W3C//DTD SVG 1.1//EN" "http://www.w3.org/Graphics/SVG/1.1/DTD/svg11.dtd">
<svg version="1.1" id="Layer_1" xmlns="http://www.w3.org/2000/svg" xmlns:xlink="http://www.w3.org/1999/xlink" x="0px" y="0px"
	 width="612px" height="792px" viewBox="0 0 612 792" enable-background="new 0 0 612 792" xml:space="preserve">
<path fill="#010101" stroke="#000000" stroke-width="16" stroke-miterlimit="10" d="M544.366,604.626h-4.054v-32.43h-18.647
	c-12.162-15.405-81.078-106.212-71.349-187.288c25.944-2.433,50.268,9.729,51.079,10.54l3.243,1.621l9.729-6.485
	c8.107-4.865,13.782-13.784,16.216-22.702c2.432-9.729,0.811-19.459-4.865-28.377l-64.861-78.645l-2.433-2.432l-3.243,0.811
	c-2.432,0.811-8.919,0.811-10.54-2.432c-1.621-2.432-1.621-7.297,0.811-13.783l3.243-8.918l-9.729,0.811
	c-1.621,0-25.134,3.243-50.268,21.891l-51.079-51.079l-227.015,28.377v-28.377H42.5v12.162h55.943v168.64H54.662v12.162h55.943
	v-28.377h15.405l15.405,17.026c12.972,14.595,30.809,22.702,50.268,22.702H316.54c-0.811,11.351-1.622,23.513-1.622,36.485v125.669
	h-13.783v32.43h-4.054c-13.783,0-25.134,11.352-25.134,25.134v34.863H569.5V629.76C569.5,615.978,558.149,604.626,544.366,604.626z
	 M150.333,379.232l-18.648-21.08h-21.08V246.267l222.962-27.566l45.402,45.403c-9.729,8.108-19.458,19.458-28.377,33.242
	l-40.537-40.539l-58.376,58.375c-8.918,8.918-8.918,24.323,0,34.052c8.918,8.918,21.08,14.594,34.052,14.594h30.81
	c20.269,0,37.295,15.404,40.538,34.863H191.682C175.466,397.881,160.873,391.395,150.333,379.232z M317.352,350.856h-30.81
	c-9.73,0-18.648-4.054-25.945-10.54c-4.865-4.865-4.865-12.162,0-16.215l49.458-49.457l34.051,34.052
	c-6.486,12.162-12.972,26.755-17.836,43.781C323.837,350.856,320.594,350.856,317.352,350.856z M327.08,446.527
	c0-12.973,0.811-25.135,1.621-36.485h41.35v-6.486c0-21.891-12.973-40.538-31.62-48.646c22.701-78.645,72.158-100.535,93.238-106.21
	c-0.811,6.486,0.811,11.351,4.055,15.404c4.863,6.486,13.782,6.486,18.647,6.486l62.429,75.401
	c3.243,5.675,4.865,12.162,3.243,18.647c-1.622,6.486-4.864,12.162-10.54,15.405l-4.864,3.243
	c-12.973-6.487-64.052-25.945-99.726,11.35l8.919,8.108c7.297-8.108,15.405-12.161,24.323-15.405
	c-6.486,76.213,47.835,157.29,68.104,184.856H327.08V446.527z M557.339,652.462H284.919V629.76c0-7.297,5.676-12.161,12.162-12.161
	h16.216v-32.431h215.664v32.431h16.216c7.297,0,12.162,5.676,12.162,12.161V652.462z"/>
</svg>
