<?xml version="1.0" encoding="utf-8"?>
<!-- Generator: Adobe Illustrator 16.0.0, SVG Export Plug-In . SVG Version: 6.00 Build 0)  -->
<!DOCTYPE svg PUBLIC "-//W3C//DTD SVG 1.1//EN" "http://www.w3.org/Graphics/SVG/1.1/DTD/svg11.dtd">
<svg version="1.1" id="Layer_1" xmlns="http://www.w3.org/2000/svg" xmlns:xlink="http://www.w3.org/1999/xlink" x="0px" y="0px"
	 width="612px" height="792px" viewBox="0 0 612 792" enable-background="new 0 0 612 792" xml:space="preserve">
<path fill="#010101" d="M330.635,468.214c-26.567-15.747-62.632-31.408-89.028-60.355v-13.495
	c12.258-14.29,21.5-30.783,27.791-49.994c0.893-2.748,1.738-5.545,2.509-8.396c6.42-3.299,11.652-12.074,12.827-22.84
	c0.398-3.58,0.313-7.044-0.184-10.245c-0.839-5.33-2.809-9.914-5.569-13.078c0.551-10.196,0.569-20.968,0.098-32.319
	c-0.367-8.832-1.041-18.012-2.05-27.596c-0.251-2.368-0.563-4.645-0.949-6.854c-9.559-55.11-59.706-60.552-78.758-60.601
	c-0.766-0.006-13.948-0.006-14.707,0c-19.051,0.043-69.198,5.49-78.758,60.601c-0.38,2.203-0.698,4.486-0.949,6.854
	c-1.003,9.584-1.671,18.758-2.05,27.596c-0.483,11.352-0.459,22.129,0.098,32.319c-2.767,3.164-4.743,7.748-5.563,13.078
	c-0.501,3.201-0.587,6.659-0.195,10.245c1.187,10.766,6.401,19.547,12.827,22.84c1.555,5.716,3.348,11.193,5.392,16.463
	c6.108,15.814,14.407,29.676,24.915,41.928v13.488v0.007c-47.026,51.567-124.75,60.968-124.75,103.808v46.707
	c0,5.734,4.645,10.393,10.386,10.393h179.946C211.27,527.352,276.993,510.84,330.635,468.214z"/>
<path fill="#010101" d="M464.846,457.712l-0.079-20.147c28.488,3.721,86.555-17.02,86.555-17.02
	c-19.682-20.129-24.138-43.623-37.063-135.821c-12.919-92.204-93.042-91.341-99.077-91.341c-6.027,0-86.157-0.863-99.076,91.341
	c-12.926,92.191-17.375,115.692-37.063,135.821c0,0,58.073,20.74,86.556,17.02l-0.08,20.147
	c-50.68,55.575-134.713,65.71-134.707,111.892v50.355c0,6.182,5.012,11.199,11.193,11.199h172.914h0.521h172.914
	c6.182,0,11.193-5.019,11.193-11.199v-50.355C599.56,523.422,515.525,513.287,464.846,457.712z"/>
</svg>
