<?xml version="1.0" encoding="utf-8"?>
<!-- Generator: Adobe Illustrator 16.0.0, SVG Export Plug-In . SVG Version: 6.00 Build 0)  -->
<!DOCTYPE svg PUBLIC "-//W3C//DTD SVG 1.0//EN" "http://www.w3.org/TR/2001/REC-SVG-20010904/DTD/svg10.dtd">
<svg version="1.0" id="Layer_1" xmlns="http://www.w3.org/2000/svg" xmlns:xlink="http://www.w3.org/1999/xlink" x="0px" y="0px"
	 width="40px" height="40px" viewBox="0 0 40 40" enable-background="new 0 0 40 40" xml:space="preserve">
<g id="dexc">
	<rect x="24.333" fill="#9AE6B4" width="15.667" height="17.083"/>
	<g>
		<path fill="#FFFFFF" d="M31.281,11.022c-0.006,0.246-0.203,0.447-0.433,0.447h-1.681c-0.229,0-0.426-0.201-0.433-0.447
			l-0.736-8.23c-0.007-0.246,0.179-0.447,0.407-0.447h3.091c0.23,0,0.414,0.201,0.408,0.447L31.281,11.022z"/>
		<path fill="#FFFFFF" d="M31.27,13.036v1.568c0,0.245-0.191,0.448-0.421,0.448h-1.681c-0.229,0-0.42-0.203-0.42-0.448v-1.568
			c0-0.243,0.19-0.446,0.42-0.446h1.681C31.078,12.59,31.27,12.793,31.27,13.036z"/>
	</g>
	<g>
		<path fill="#FFFFFF" d="M36.488,11.022c-0.006,0.245-0.203,0.447-0.433,0.447h-1.681c-0.229,0-0.427-0.202-0.433-0.447
			l-0.736-8.23c-0.007-0.246,0.178-0.447,0.407-0.447h3.091c0.229,0,0.414,0.202,0.408,0.447L36.488,11.022z"/>
		<path fill="#FFFFFF" d="M36.476,13.036v1.568c0,0.246-0.19,0.448-0.42,0.448h-1.681c-0.229,0-0.421-0.203-0.421-0.448v-1.568
			c0-0.243,0.191-0.446,0.421-0.446h1.681C36.285,12.59,36.476,12.793,36.476,13.036z"/>
	</g>
</g>
<title>cm-chessbord Staunty pieces and markers sprite</title>
<title>cm-chessbord Staunty pieces and markers sprite</title>
</svg>
